<?xml version="1.0" encoding="UTF-8" standalone="no" ?>
<!DOCTYPE svg PUBLIC "-//W3C//DTD SVG 1.1//EN" "http://www.w3.org/Graphics/SVG/1.1/DTD/svg11.dtd">
<svg xmlns="http://www.w3.org/2000/svg" xmlns:xlink="http://www.w3.org/1999/xlink" version="1.1" width="1422" height="647" viewBox="0 0 1422 647" xml:space="preserve">
<desc>Created with Fabric.js 4.6.0</desc>
<defs>
</defs>
<g transform="matrix(1 0 0 1 711 323.5)"  >
<ellipse style="stroke: rgb(0,0,0); stroke-width: 0; stroke-dasharray: none; stroke-linecap: butt; stroke-dashoffset: 0; stroke-linejoin: miter; stroke-miterlimit: 4; fill: rgb(255,215,0); fill-rule: nonzero; opacity: 1;"  cx="0" cy="0" rx="354.331825" ry="141.73273" />
</g>
<g transform="matrix(2.79 0 0 2.79 712.39 324.89)" style="" id="bb9d3389-1861-43a5-ac94-6913deef03d9"  >
		<text xml:space="preserve" font-family="Arial" font-size="40" font-style="normal" font-weight="normal" style="stroke: none; stroke-width: 1; stroke-dasharray: none; stroke-linecap: butt; stroke-dashoffset: 0; stroke-linejoin: miter; stroke-miterlimit: 4; fill: rgb(0,0,0); fill-rule: nonzero; opacity: 1; white-space: pre;" ><tspan x="-36.68" y="12.57" >Test</tspan></text>
</g>
<g transform="matrix(5.77 0 0 5.77 911.82 319.13)" id="34007fb5-e813-47ee-8e76-7d9d5f54b7fa"  >
<path style="stroke: none; stroke-width: 1; stroke-dasharray: none; stroke-linecap: butt; stroke-dashoffset: 0; stroke-linejoin: miter; stroke-miterlimit: 4; fill: rgb(0,0,0); fill-rule: nonzero; opacity: 1;"  transform=" translate(-16, -16)" d="M 16 2.84375 L 15.4375 3.21875 L 3.4375 11.25 L 3 11.53125 L 3 20.46875 L 3.4375 20.75 L 15.4375 28.78125 L 16 29.15625 L 16.5625 28.78125 L 28.5625 20.75 L 29 20.46875 L 29 11.53125 L 28.5625 11.25 L 16.5625 3.21875 Z M 15 5.90625 L 15 11.34375 L 9.84375 14.8125 L 5.8125 12.09375 Z M 17 5.90625 L 26.1875 12.09375 L 22.15625 14.8125 L 17 11.34375 Z M 16 13.09375 L 20.34375 16 L 16 18.90625 L 11.65625 16 Z M 5 13.9375 L 8.0625 16 L 5 18.0625 Z M 27 13.9375 L 27 18.0625 L 23.9375 16 Z M 9.875 17.1875 L 15 20.65625 L 15 26.09375 L 5.8125 19.90625 Z M 22.125 17.1875 L 26.1875 19.90625 L 17 26.09375 L 17 20.65625 Z" stroke-linecap="round" />
</g>
</svg>